<?xml version="1.0" encoding="UTF-8" standalone="no"?>
<svg
   version="1.1"
   width="595.09363"
   height="842.40509"
   id="svg40"
   viewBox="0 0 595.09362 842.40509"
   sodipodi:docname="6e9ed8ee85c6800c3cbb86d9b3988c27.cdr"
   xmlns:inkscape="http://www.inkscape.org/namespaces/inkscape"
   xmlns:sodipodi="http://sodipodi.sourceforge.net/DTD/sodipodi-0.dtd"
   xmlns="http://www.w3.org/2000/svg"
   xmlns:svg="http://www.w3.org/2000/svg">
  <defs
     id="defs44" />
  <sodipodi:namedview
     id="namedview42"
     pagecolor="#ffffff"
     bordercolor="#666666"
     borderopacity="1.0"
     inkscape:pageshadow="2"
     inkscape:pageopacity="0.0"
     inkscape:pagecheckerboard="0" />
  <path
     d="M 0,0 V 842.4051 H 595.0936 V 0 Z"
     style="fill:none"
     id="path2" />
  <path
     d="m 460.1093,368.2912 c 0,94.0745 -76.2664,170.3401 -170.3418,170.3401 -94.0787,0 -170.3517,-76.2656 -170.3517,-170.3401 0,-94.0771 76.273,-170.3476 170.3517,-170.3476 94.0754,0 170.3418,76.2705 170.3418,170.3476 z"
     style="fill:#009c45;fill-rule:evenodd"
     id="path4" />
  <path
     d="m 130.6852,367.9099 c 0,-87.8569 71.2233,-159.0794 159.0777,-159.0794 87.8594,0 159.0777,71.2225 159.0777,159.0794 0,87.8677 -71.2183,159.0744 -159.0777,159.0744 -87.8544,0 -159.0777,-71.2067 -159.0777,-159.0744 z"
     style="fill:#ffffff;fill-rule:evenodd"
     id="path6" />
  <path
     d="m 440.3292,367.9099 c 0,83.1511 -67.4122,150.5749 -150.5666,150.5749 -83.1536,0 -150.5682,-67.4238 -150.5682,-150.5749 0,-83.1495 67.4146,-150.565 150.5682,-150.565 83.1544,0 150.5666,67.4155 150.5666,150.565 z"
     style="fill:#ffffff;fill-rule:evenodd"
     id="path8" />
  <g
     id="Layer1000"
     transform="translate(0.553,0.9017)">
    <path
       d="m 296.2681,457.5772 c 20.1041,-19.4545 41.3837,-34.4782 67.2602,-45.3759 21.6176,-9.1125 48.8216,-16.4665 72.2484,-16.1293 -22.9284,-6.8514 -60.9271,0 -85.2693,7.9729 -28.3345,9.2604 -54.3198,25.4927 -76.1177,43.1214 -16.3237,13.2253 -38.2528,33.3618 -53.7841,54.3531 9.0378,4.5596 18.5981,8.2304 28.5655,10.9101 14.3367,-19.3232 30.8514,-39.1649 47.097,-54.8523 z"
       style="fill:#009c45;fill-rule:evenodd"
       id="path10" />
    <path
       d="m 253.2563,435.9937 c 28.4625,-19.7229 56.5652,-31.0849 90.1363,-39.2007 20.5195,-4.9475 42.6687,-8.0185 62.0377,-7.2543 -21.1483,-5.2798 -54.5109,-2.2179 -78.4237,2.2005 -28.9126,5.357 -61.8823,16.1924 -94.1617,35.068 -18.1869,10.631 -38.2736,25.1256 -55.9995,41.411 5.7267,6.3041 11.9817,12.1197 18.6928,17.3787 16.3752,-16.0521 34.425,-33.4864 57.7181,-49.6032 z"
       style="fill:#009c45;fill-rule:evenodd"
       id="path12" />
    <path
       d="m 218.4874,416.1388 c 33.719,-17.0273 66.2476,-25.3665 99.6617,-29.7857 17.1103,-2.2603 35.0256,-3.9092 52.7224,-3.2563 -21.1001,-2.5128 -44.1,-2.8243 -63.8145,-1.4936 -26.3774,1.7569 -71.8871,11.2466 -97.2868,22.3902 -17.5971,7.7236 -38.7279,18.0149 -56.021,30.5964 2.9082,5.7807 6.1711,11.3521 9.7729,16.6768 18.8747,-14.6125 37.0982,-26.1125 54.9653,-35.1278 z"
       style="fill:#009c45;fill-rule:evenodd"
       id="path14" />
    <path
       d="m 205.0096,393.7195 c 25.4396,-8.3159 62.3641,-16.3893 100.4616,-16.9276 -44.4738,-3.2189 -88.9425,4.2498 -106.9309,8.8293 -21.0121,5.3778 -40.4517,12.2185 -55.8973,19.5592 1.1305,4.3254 2.4505,8.5726 3.9465,12.7368 17.74,-9.3044 38.4863,-17.6569 58.4201,-24.1977 z"
       style="fill:#009c45;fill-rule:evenodd"
       id="path16" />
    <path
       d="m 402.7979,434.6488 c -9.4216,10.3428 -18.2069,22.2647 -27.4731,37.8549 -4.7623,7.9986 -8.4439,16.3902 -11.7384,24.9404 32.7695,-18.9528 57.7265,-49.9031 68.8842,-86.8393 -11.161,6.1628 -21.2754,14.8118 -29.6727,24.044 z"
       style="fill:#009c45;fill-rule:evenodd"
       id="path18" />
    <path
       d="m 374.9693,420.2224 c -20.7587,11.9418 -37.2801,27.7505 -52.779,45.9632 -12.0116,14.1257 -23.0605,30.9644 -35.1286,51.3402 11.7699,-0.1836 23.2291,-1.5567 34.278,-4.0413 9.9133,-17.5764 19.2884,-32.733 28.8412,-45.7539 11.7907,-16.0487 25.9903,-30.77 39.8361,-41.6901 12.0648,-9.5005 28.0388,-18.3531 44.561,-23.1627 0.2343,-0.957 0.4611,-1.9172 0.677,-2.8808 -20.6258,1.6721 -41.5523,9.4623 -60.2857,20.2254 z"
       style="fill:#009c45;fill-rule:evenodd"
       id="path20" />
  </g>
  <g
     id="Layer1001"
     transform="translate(0.553,0.9017)">
    <path
       d="M 336.7068,370.654 157.1096,294.5006 c -3.5819,6.505 -6.6978,13.3017 -9.302,20.3475 l 167.7019,54.4212 c 7.1488,0.309 14.2262,0.7517 21.1973,1.3847 z"
       style="fill:#f9ab03;fill-rule:evenodd"
       id="path23" />
    <path
       d="m 340.8137,371.0744 c 35.2216,3.5245 67.9413,11.1468 96.5956,21.954 1.4728,-8.453 2.247,-17.1461 2.247,-26.0202 0,-0.9595 -0.0191,-1.9156 -0.0366,-2.8709 l -0.3522,0.221 -2.7703,-4.0288 2.8924,-2.183 c -0.1271,-2.1905 -0.2924,-4.3711 -0.5117,-6.5358 l -5.4941,4.9525 -3.4232,-3.4897 8.0144,-8.6058 c -0.3946,-2.6308 -0.8539,-5.2391 -1.3831,-7.8242 l -10.3511,13.2635 -3.9781,-2.8393 12.3057,-18.9702 c -0.8407,-3.1508 -1.7719,-6.265 -2.8086,-9.3311 l -13.7153,25.8192 -4.4076,-2.1049 14.3151,-33.763 c -1.5343,-3.6509 -3.2106,-7.2278 -5.0173,-10.7249 l -13.8823,42.7758 -4.6992,-1.3033 12.1446,-52.7066 c -2.5153,-3.9848 -5.2126,-7.8408 -8.0801,-11.5623 l -8.8833,63.3776 -4.8536,-0.4652 3.8734,-74.4696 c -3.7256,-3.9441 -7.6638,-7.6847 -11.7931,-11.2084 l 3.0261,85.6365 -4.8761,0.3854 -11.8795,-96.4528 c -4.999,-3.3642 -10.2116,-6.4361 -15.6118,-9.1914 l 22.6717,106.4525 -4.7332,1.2252 -35.2549,-115.173 c -6.0473,-2.178 -12.2766,-3.9739 -18.6545,-5.372 l 49.4163,122.1657 -4.4533,2.031 -64.8653,-127.178 c -4.1086,-0.3381 -8.2611,-0.5167 -12.4569,-0.5167 -2.7346,0 -5.4501,0.0781 -8.1481,0.2218 l 81.2181,129.8819 -4.018,2.7686 -98.0851,-130.0646 c -7.0732,1.3823 -13.967,3.2596 -20.6482,5.5938 l 114.9611,127.5842 -3.4855,3.4249 -131.3613,-122.3991 c -6.4967,3.3909 -12.7135,7.2419 -18.6105,11.5099 l 146.7928,114.6032 -2.836,3.9723 -160.8454,-104.3633 c -5.3055,5.1693 -10.229,10.7274 -14.7288,16.6268 l 173.093,91.9547 z"
       style="fill:#f9ab03;fill-rule:evenodd"
       id="path25" />
    <path
       d="M 283.1545,368.9893 141.644,336.3752 c -1.4936,7.2219 -2.4638,14.6341 -2.8825,22.1933 l 99.6484,13.9737 c 14.4921,-1.894 29.431,-3.1267 44.7446,-3.5529 z"
       style="fill:#f9ab03;fill-rule:evenodd"
       id="path27" />
    <path
       d="m 184.5686,383.2571 -45.4034,-2.3641 c 0.5358,5.8538 1.4022,11.6104 2.5884,17.2516 13.315,-5.7184 27.6384,-10.7225 42.815,-14.8875 z"
       style="fill:#f9ab03;fill-rule:evenodd"
       id="path29" />
  </g>
  <path
     d="m 288.9995,172.0171 c 108.3974,0 196.2705,87.8731 196.2705,196.2706 0,108.3971 -87.8731,196.2703 -196.2705,196.2703 -108.3972,0 -196.2703,-87.8732 -196.2703,-196.2703 0,-108.3975 87.8731,-196.2706 196.2703,-196.2706 z"
     style="fill:none"
     id="path32" />
  <path
     d="m 123.9593,507.6235 c 1.8011,-1.6795 3.9433,-2.4792 6.4264,-2.3989 2.4707,0.0799 4.5516,1.0267 6.2501,2.8479 1.698,1.821 2.4976,3.9634 2.4049,6.4333 -0.0932,2.4828 -1.0403,4.564 -2.8414,6.2436 -1.821,1.6982 -3.9631,2.4976 -6.4397,2.4111 -2.4636,-0.0859 -4.5448,-1.0332 -6.2431,-2.8542 -1.6982,-1.8213 -2.4979,-3.9631 -2.412,-6.427 0.0868,-2.4763 1.0338,-4.5575 2.8548,-6.2558 z m -20.9443,-56.7972 7.0338,13.805 7.4416,-1.3989 6.3082,12.3809 -46.7241,5.2447 -6.732,-13.212 31.7024,-34.727 6.4619,12.6822 z m -7.189,6.8601 -11.8876,11.52 16.2932,-2.8735 z m -34.3117,-56.6549 4.4252,20.8188 32.476,-6.903 2.823,13.2812 -43.0509,9.1508 -7.2482,-34.1002 z M 49.2979,388.9854 48.9033,366.3828 c -0.0859,-4.9179 1.0176,-8.6267 3.3213,-11.1164 2.2933,-2.4896 5.6121,-3.7774 9.9255,-3.8525 4.4467,-0.0777 7.9433,1.1933 10.4902,3.8239 2.5464,2.6308 3.8676,6.6866 3.9634,12.168 l 0.1298,7.4387 16.3318,-0.2849 0.2384,13.6576 z m 18.5218,-13.9853 -0.0581,-3.3299 c -0.0459,-2.6229 -0.5289,-4.4492 -1.4593,-5.4986 -0.9303,-1.0395 -2.1075,-1.552 -3.5217,-1.5273 -1.3831,0.0241 -2.5532,0.5057 -3.4898,1.4448 -0.9476,0.9283 -1.3989,2.6683 -1.3544,5.2095 l 0.0675,3.873 z m 3.6751,-34.8803 c -6.9993,-1.6161 -11.999,-4.832 -14.9944,-9.6248 -3.0027,-4.8053 -3.6955,-10.6866 -2.0888,-17.6459 1.6483,-7.1394 4.8356,-12.1984 9.5618,-15.177 4.7137,-2.9713 10.5327,-3.6683 17.4325,-2.0755 5.0122,1.1571 8.93,2.9557 11.7456,5.3832 2.8154,2.4273 4.7492,5.44 5.8011,9.0377 1.0497,3.6077 1.023,7.7769 -0.0765,12.5397 -1.1157,4.8325 -2.8089,8.659 -5.0797,11.4791 -2.2782,2.808 -5.307,4.8116 -9.0981,6.0186 -3.7893,1.197 -8.1913,1.222 -13.2035,0.0649 z m 3.1213,-13.246 c 4.3333,1.0003 7.6232,0.9184 9.8915,-0.2509 2.258,-1.1721 3.7136,-3.1499 4.3523,-5.9156 0.6568,-2.8454 0.2378,-5.2668 -1.2495,-7.2505 -1.4979,-1.9868 -4.6406,-3.543 -9.4335,-4.6497 -4.0436,-0.9334 -7.1781,-0.7945 -9.4212,0.4017 -2.2328,1.1988 -3.6709,3.191 -4.3163,5.9868 -0.6157,2.666 -0.1726,5.0295 1.351,7.0849 1.514,2.0534 4.4623,3.5858 8.8257,4.5933 z m 51.4394,-70.0918 -6.3694,11.9795 -29.3154,-15.5874 -7.0191,13.2012 29.3153,15.5872 -6.3745,11.9886 -38.8608,-20.6626 19.7632,-37.169 z m -27.4249,-35.9194 14.8309,-17.0609 c 3.2269,-3.7123 6.529,-5.73 9.9068,-6.0387 3.3701,-0.3158 6.698,0.9479 9.9538,3.778 3.3565,2.918 5.1044,6.2022 5.237,9.8612 0.1321,3.659 -1.6001,7.5575 -5.1967,11.6949 l -4.881,5.6149 12.3279,10.7163 -8.9617,10.3091 z m 23.1225,2.0004 2.1849,-2.5135 c 1.7212,-1.98 2.5841,-3.6601 2.5952,-5.0627 0.004,-1.3949 -0.5281,-2.5637 -1.5954,-3.4914 -1.044,-0.9077 -2.2359,-1.3326 -3.5603,-1.2617 -1.3252,0.0561 -2.825,1.0471 -4.4923,2.9653 l -2.5413,2.9234 z m 26.9235,-24.3185 c -3.8067,-6.0919 -5.0681,-11.9012 -3.797,-17.4081 1.2747,-5.5213 4.9433,-10.1698 11.0006,-13.955 6.2136,-3.8826 12.0445,-5.2061 17.4929,-3.9704 5.434,1.2322 10.0418,4.854 13.7943,10.8592 2.7258,4.3622 4.2244,8.4042 4.4988,12.1119 0.2744,3.7071 -0.4884,7.2048 -2.2884,10.4927 -1.8088,3.293 -4.7758,6.2223 -8.9212,8.8126 -4.206,2.6283 -8.109,4.1366 -11.7088,4.5253 -3.5966,0.3744 -7.1549,-0.3504 -10.6891,-2.1779 -3.5258,-1.8329 -6.6561,-4.9277 -9.3821,-9.2903 z m 11.5733,-7.1591 c 2.3567,3.7714 4.7409,6.0397 7.1716,6.8167 2.4256,0.7679 4.8535,0.3988 7.2607,-1.1055 2.4766,-1.5474 3.8922,-3.5558 4.2431,-6.0103 0.3459,-2.4639 -0.7758,-5.7866 -3.3825,-9.9581 -2.1992,-3.5195 -4.5139,-5.6376 -6.9458,-6.378 -2.4267,-0.731 -4.8523,-0.3393 -7.2853,1.1812 -2.3207,1.45 -3.6785,3.4345 -4.0544,5.9653 -0.3815,2.5225 0.6197,5.6908 2.9926,9.4887 z m 31.4761,-44.2103 17.0164,-5.529 14.8431,23.3317 -1.7348,-27.591 16.9577,-5.5097 13.6006,41.8583 -10.5644,3.4328 -10.3706,-31.9178 2.1742,34.5809 -9.5607,3.1065 -18.5377,-29.264 10.3708,31.9175 -10.5939,3.4421 z m 83.638,-2.5886 7.2643,0.127 c 6.6594,0.1162 11.5776,1.3807 14.764,3.7936 3.1762,2.4023 4.7208,6.0885 4.6343,11.0472 -0.0711,4.0677 -1.6004,7.1464 -4.589,9.2466 -2.9883,2.0999 -7.2385,3.1019 -12.761,3.0056 l -23.3606,-0.4077 0.7679,-44.0061 13.576,0.2369 z m -0.307,17.5924 6.9568,0.1213 c 4.2624,0.0745 6.4201,-1.4253 6.474,-4.5094 0.0473,-2.7048 -2.0602,-4.0946 -6.3227,-4.1689 l -6.9568,-0.1216 z m 30.8486,-34.0212 13.627,0.2379 -0.7679,44.0058 -13.6273,-0.2378 z m 78.6407,64.7119 -56.3117,-18.2968 13.6007,-41.8587 12.9132,4.1959 -10.2597,31.5768 8.7029,2.8276 10.2597,-31.5766 12.9328,4.2021 -10.2597,31.5768 8.8299,2.869 10.2597,-31.5769 12.9331,4.2024 z m 38.7023,31.3293 -10.7159,-8.3718 20.441,-26.1632 -8.3821,-6.5489 -8.3341,10.6673 c -3.4257,4.3847 -6.1691,7.4299 -8.246,9.1233 -2.0772,1.6935 -4.339,2.3579 -6.8017,1.9815 -2.4628,-0.3768 -5.603,-2.0498 -9.4224,-5.0341 -1.171,-0.9147 -2.4103,-2.0914 -3.725,-3.5212 l 5.4887,-7.0254 1.607,1.2555 c 1.4536,1.1355 2.7314,1.6138 3.8273,1.4428 1.0959,-0.1712 2.3097,-1.1086 3.6408,-2.8125 l 17.93,-22.9493 29.7893,23.2736 z m 41.2115,-21.1464 22.9325,28.3189 -7.3029,5.9137 -14.3555,-17.7273 -5.4391,4.4044 13.3169,16.4452 -6.9761,5.6492 -13.3171,-16.4449 -6.7371,5.4555 14.7744,18.245 -7.7488,6.275 -23.3515,-28.8368 z m 33.2098,44.1813 5.747,12.3245 -13.9587,6.5089 6.2839,13.4759 13.9589,-6.5089 5.7728,12.3798 -39.8892,18.6006 -5.7727,-12.3797 16.1322,-7.5226 -6.2841,-13.4762 -16.132,7.5226 -5.7469,-12.3242 z m 23.3473,57.2743 2.5945,13.3487 -15.1185,2.9386 2.8369,14.5959 15.1188,-2.9387 2.6065,13.4088 -43.204,8.3979 -2.6064,-13.4087 17.4727,-3.3962 -2.8372,-14.5962 -17.4727,3.3965 -2.5946,-13.3487 z m -8.7962,75.6389 -0.8855,7.2113 c -0.8119,6.611 -2.5835,11.3698 -5.3161,14.2866 -2.7216,2.9078 -6.5486,4.0584 -11.4713,3.454 -4.0379,-0.4958 -6.94,-2.3386 -8.7162,-5.5304 -1.7762,-3.1912 -2.3284,-7.5231 -1.6552,-13.005 l 2.8471,-23.1903 43.6848,5.3637 -1.6546,13.4768 z m -17.464,-2.1444 -0.8478,6.9063 c -0.5196,4.231 0.7464,6.5338 3.8078,6.9097 2.6852,0.3297 4.2877,-1.6208 4.8072,-5.8521 l 0.8479,-6.9061 z m 30.6102,34.236 -1.6608,13.5277 -43.6847,-5.364 1.6611,-13.5275 z m -25.6442,73.5085 -40.2074,-17.9016 5.2016,-11.683 22.0742,9.828 -15.368,-24.8907 5.2143,-11.7111 40.2075,17.9014 -5.2141,11.7113 -22.2429,-9.9034 15.499,25.0503 z m 13.9601,-4.6989 c -2.1416,-1.4134 -3.4991,-3.3526 -4.1048,-5.821 -0.597,-2.4641 -0.3331,-4.9717 0.7962,-7.5087 1.1256,-2.5276 2.8083,-4.392 5.0658,-5.6078 2.2442,-1.2109 4.5896,-1.4899 7.0458,-0.8339 l -2.1257,4.7744 c -2.6354,-0.2537 -4.5156,0.8949 -5.6574,3.4599 -1.2214,2.7429 -0.8543,4.9927 1.1058,6.7627 z m -68.6044,36.7225 c -1.8864,-1.5829 -2.9412,-3.6116 -3.1643,-6.086 -0.2217,-2.4619 0.4646,-4.6428 2.0653,-6.5506 1.6005,-1.9074 3.6292,-2.9622 6.092,-3.1708 2.4758,-0.2103 4.657,0.4762 6.5435,2.0591 1.9074,1.6007 2.9619,3.6292 3.1779,6.0982 0.2149,2.4556 -0.4714,4.6366 -2.0721,6.544 -1.6005,1.9077 -3.6292,2.9622 -6.0852,3.1774 -2.4684,0.2157 -4.6494,-0.4706 -6.5571,-2.0713 z"
     style="fill:#009c45;fill-rule:evenodd"
     id="path34" />
  <path
     d="m 242.435,598.8807 h -13.5674 v -33.2016 h -14.9511 v 33.2016 h -13.578 V 554.868 h 42.0965 z m 36.1426,-7.2655 h -15.4939 l -2.1316,7.2655 h -13.8955 l 16.5393,-44.0127 h 14.8281 l 16.5495,44.0127 h -14.2336 z m -2.8488,-9.5199 -4.8674,-15.8218 -4.8367,15.8218 z m 23.5383,-27.2273 h 22.606 c 4.9187,0 8.6077,1.1682 11.0568,3.515 2.4492,2.3363 3.6788,5.6769 3.6788,9.991 0,4.4475 -1.332,7.9214 -4.0064,10.4218 -2.6748,2.5002 -6.7533,3.7505 -12.2355,3.7505 h -7.4398 v 16.3344 h -13.6599 z m 13.6599,18.7631 h 3.3304 c 2.6235,0 4.4578,-0.451 5.5233,-1.3629 1.0556,-0.9122 1.5886,-2.0804 1.5886,-3.4946 0,-1.3833 -0.4612,-2.5616 -1.3836,-3.5146 -0.9119,-0.9635 -2.6436,-1.4451 -5.1852,-1.4451 h -3.8735 z m 70.8202,25.2496 h -15.3096 l -5.2878,-11.3746 c -1.2605,-2.685 -2.2442,-4.3653 -2.9409,-5.0315 -0.7073,-0.6763 -1.6705,-1.0043 -2.9104,-1.0043 v 17.4104 H 343.7206 V 554.868 h 13.5779 v 16.8979 c 1.1784,-0.051 2.1008,-0.4714 2.7565,-1.2603 0.6661,-0.779 1.6908,-3.0127 3.0948,-6.7224 1.0247,-2.736 2.0495,-4.7035 3.0946,-5.8923 1.0352,-1.1988 2.7258,-2.0495 5.0726,-2.5719 2.3363,-0.5227 6.0151,-0.779 11.016,-0.779 v 9.3048 h -0.6866 c -2.3261,0 -4.0478,0.4405 -5.1647,1.3218 -1.1273,0.8812 -2.0392,2.3057 -2.7669,4.2732 -0.7171,1.9777 -1.4961,3.4432 -2.3261,4.4166 -0.83,0.9735 -1.9675,1.7524 -3.4021,2.3262 1.9573,0.6457 3.6686,1.7523 5.1338,3.3202 1.4553,1.5678 3.0129,4.0169 4.6525,7.3372 z"
     style="fill:#009c45;fill-rule:evenodd"
     id="path36" />
  <path
     d="m 133.9361,645.4261 7.8506,-64.9964 -25.5603,14.4235 c 0.2435,0.2432 0.7911,0.8215 1.6432,1.7343 0.8521,0.913 1.3998,1.3694 1.6433,1.3694 l 3.8338,92.5648 c 0.9737,0.2435 1.7955,0.5782 2.4648,1.0043 0.6695,0.4257 1.6129,0.6389 2.8301,0.6389 1.4604,0 2.5254,-0.6389 3.1949,-1.9171 0.6695,-1.2781 1.004,-2.8907 1.004,-4.8381 0,-1.2172 0.0913,-2.9517 0.2739,-5.2033 0.1828,-2.2518 0.3957,-4.534 0.6392,-6.8465 0.2435,-2.3128 0.4867,-4.2905 0.7302,-5.9338 0.2435,-1.6432 0.487,-2.4038 0.7302,-2.2822 l 19.7181,34.1414 c 2.3125,2.7995 4.2905,4.8078 5.9334,6.0247 1.6433,1.2172 3.8648,1.8258 6.664,1.8258 2.0693,0 4.0167,-0.2738 5.8425,-0.8215 1.8258,-0.5476 3.5906,-1.491 5.2945,-2.8298 0.487,-1.4607 0.7609,-2.9214 0.8218,-4.3818 0.0607,-1.4607 0.2129,-2.9211 0.4564,-4.3818 -0.1219,-2.7995 -0.4564,-5.0207 -1.0043,-6.664 -0.5477,-1.6432 -1.2476,-3.2558 -2.0997,-4.8381 -1.0953,0.8521 -2.4647,1.917 -4.1076,3.1949 -1.6433,1.2781 -3.3169,1.9171 -5.021,1.9171 -2.4342,0 -4.9295,-0.1826 -7.4855,-0.5477 -2.556,-0.3651 -4.8685,-1.7042 -6.9378,-4.0167 -2.7995,-4.7469 -5.5074,-10.1024 -8.1244,-16.0665 -2.6169,-5.9641 -4.473,-11.6847 -5.5686,-17.1618 2.3128,-3.895 5.7206,-6.7855 10.2243,-8.6723 4.5034,-1.8864 9.0677,-2.8298 13.693,-2.8298 1.9474,0.4867 3.1949,0.9434 3.7426,1.3691 0.5476,0.4261 1.2475,1.1869 2.0996,2.2822 l 0.7302,1.0956 c 0.974,-3.2865 1.4607,-6.0857 1.4607,-8.3985 0,-1.9474 -0.2435,-3.7426 -0.7302,-5.3858 -0.487,-1.6433 -1.3998,-3.1343 -2.7386,-4.4731 -3.1646,0 -6.025,0.2129 -8.581,0.6389 -2.556,0.4261 -5.7815,1.4911 -9.6763,3.1953 -2.7995,2.069 -5.6294,4.5643 -8.4898,7.4854 -2.8604,2.9211 -5.3252,5.7815 -7.3942,8.581 z m 73.2118,10.9542 c -6.5727,1.4607 -12.1107,5.3555 -16.6141,11.6847 -3.043,4.1383 -4.5644,8.5811 -4.5644,13.328 0,3.4081 0.6696,5.8118 2.0084,7.2116 1.3388,1.3997 3.3471,2.0996 6.025,2.0996 3.7729,0 6.8159,-0.9737 9.1284,-2.9211 1.5823,-1.2172 3.104,-2.4647 4.5644,-3.7428 1.4607,-1.2779 2.8604,-2.7083 4.1992,-4.2906 0.487,2.9214 1.1869,5.2036 2.0996,6.8466 0.9131,1.6432 2.0084,2.8604 3.2865,3.6515 1.2779,0.7912 2.708,1.2476 4.2903,1.3695 1.5823,0.1216 3.2865,0.1825 5.1123,0.1825 h 0.7302 c 6.8162,0 12.5367,-1.4304 17.1618,-4.2905 4.6252,-2.8605 7.2422,-7.8202 7.8508,-14.8799 -4.2602,2.556 -8.3679,4.4124 -12.3239,5.5686 -3.9558,1.1563 -7.5767,1.7343 -10.8629,1.7343 -1.5823,0 -2.8605,-0.4867 -3.8342,-1.4604 -2.4344,-2.4344 -3.6513,-5.4165 -3.6513,-8.9462 v -12.4149 l -8.0334,5.6597 c 0,-4.2599 -2.1909,-6.3902 -6.5727,-6.3902 z m -8.7636,23.7348 c -0.7302,0.2432 -1.3997,0.3651 -2.008,0.3651 -0.974,0 -1.5823,-0.487 -1.8258,-1.4607 0,-1.3388 0.426,-2.7689 1.2778,-4.2905 0.8521,-1.5213 1.8562,-2.9514 3.0127,-4.2905 1.1563,-1.3388 2.4341,-2.4951 3.8339,-3.4688 1.3997,-0.9737 2.6472,-1.5823 3.7428,-1.8258 1.4607,-0.6086 2.617,-0.9127 3.4688,-0.9127 1.3391,0 2.0083,0.6692 2.0083,2.0083 0,1.2169 -0.5476,2.6167 -1.6429,4.199 -4.2602,5.1123 -8.216,8.3375 -11.8676,9.6766 z M 261.555,657.841 c -0.487,0.9737 -1.0956,2.0387 -1.8258,3.195 -0.7302,1.1562 -1.0953,2.4647 -1.0953,3.9254 0,0.9737 0.1519,1.978 0.4564,3.0124 0.3041,1.0346 0.6389,1.9476 1.004,2.7388 0.3651,0.7911 0.7305,1.4907 1.0956,2.0993 0.3651,0.6086 0.6086,0.974 0.7302,1.0956 0.487,-0.6086 1.1869,-1.491 2.0996,-2.6472 0.9128,-1.1563 1.9171,-2.2822 3.0124,-3.3778 1.0956,-1.0953 2.1909,-2.069 3.2865,-2.9211 1.0953,-0.8521 2.069,-1.2782 2.9211,-1.2782 0.9737,0 1.6736,0.4261 2.0996,1.2782 0.426,0.8521 0.6389,1.6432 0.6389,2.3734 0,2.9211 -1.004,5.7206 -3.0123,8.3985 -2.0084,2.6776 -4.4122,4.7469 -7.2117,6.2073 l -3.2865,7.8509 9.3113,-2.0084 c 2.556,0.7302 3.8341,2.7995 3.8341,6.2076 0,4.7469 -1.3694,8.5808 -4.1079,11.5021 -2.7386,2.9212 -5.8119,5.1727 -9.22,6.755 -3.4081,1.5823 -6.664,2.6476 -9.7676,3.1952 -3.1037,0.5477 -4.9598,0.8215 -5.5684,0.8215 -4.0167,0 -6.9988,-0.9128 -8.9462,-2.7385 -1.9474,-1.8258 -3.408,-3.5297 -4.3817,-5.112 -0.1219,-0.3652 -0.3045,-0.6696 -0.5477,-0.9131 0,2.3128 0.5477,5.5381 1.643,9.6766 1.0955,3.8948 2.9517,6.4812 5.5686,7.7593 2.617,1.2782 5.6903,1.9171 9.22,1.9171 3.8948,0 7.8505,-0.8824 11.8672,-2.6473 4.0167,-1.7648 7.6377,-4.0776 10.8632,-6.9378 3.2253,-2.8604 5.8726,-6.1466 7.9419,-9.8592 2.0693,-3.7122 3.1036,-7.5767 3.1036,-11.5934 0,-2.9211 -0.7302,-5.8728 -2.1909,-8.8546 -1.4604,-2.982 -3.2862,-5.1426 -5.4771,-6.4814 1.0956,-0.6086 2.0996,-1.5216 3.0124,-2.7385 0.913,-1.2172 1.7345,-2.617 2.4647,-4.1993 0.7305,-1.5823 1.2782,-3.1952 1.6433,-4.8381 0.3651,-1.6433 0.5476,-3.1953 0.5476,-4.6557 0,-3.53 -1.0343,-6.2076 -3.1036,-8.0334 -2.0693,-1.8258 -4.6253,-2.7385 -7.668,-2.7385 -3.1646,0 -6.8162,1.5213 -10.9545,4.5643 z m 52.2159,-1.4607 c -6.5727,1.4607 -12.1108,5.3555 -16.6142,11.6847 -3.043,4.1383 -4.5643,8.5811 -4.5643,13.328 0,3.4081 0.6695,5.8118 2.0083,7.2116 1.3388,1.3997 3.3472,2.0996 6.0251,2.0996 3.7729,0 6.8159,-0.9737 9.1284,-2.9211 1.5823,-1.2172 3.1039,-2.4647 4.5643,-3.7428 1.4607,-1.2779 2.8605,-2.7083 4.1993,-4.2906 0.4869,2.9214 1.1868,5.2036 2.0996,6.8466 0.913,1.6432 2.0083,2.8604 3.2865,3.6515 1.2778,0.7912 2.7079,1.2476 4.2902,1.3695 1.5823,0.1216 3.2865,0.1825 5.1123,0.1825 h 0.7302 c 6.8162,0 12.5368,-1.4304 17.1618,-4.2905 4.6253,-2.8605 7.2422,-7.8202 7.8508,-14.8799 -4.2602,2.556 -8.3679,4.4124 -12.3239,5.5686 -3.9557,1.1563 -7.5767,1.7343 -10.8629,1.7343 -1.5823,0 -2.8605,-0.4867 -3.8342,-1.4604 -2.4343,-2.4344 -3.6513,-5.4165 -3.6513,-8.9462 v -12.4149 l -8.0333,5.6597 c 0,-4.2599 -2.1909,-6.3902 -6.5727,-6.3902 z m -8.7636,23.7348 c -0.7302,0.2432 -1.3998,0.3651 -2.0081,0.3651 -0.974,0 -1.5823,-0.487 -1.8258,-1.4607 0,-1.3388 0.4261,-2.7689 1.2779,-4.2905 0.8521,-1.5213 1.8561,-2.9514 3.0126,-4.2905 1.1563,-1.3388 2.4341,-2.4951 3.8339,-3.4688 1.3997,-0.9737 2.6473,-1.5823 3.7429,-1.8258 1.4606,-0.6086 2.6169,-0.9127 3.4687,-0.9127 1.3391,0 2.0084,0.6692 2.0084,2.0083 0,1.2169 -0.5477,2.6167 -1.643,4.199 -4.2602,5.1123 -8.2159,8.3375 -11.8675,9.6766 z m 99.3203,-29.577 c -1.9477,0 -4.6253,0.6693 -8.0334,2.0084 l -5.112,13.3276 c -1.9474,1.0956 -3.7123,1.8258 -5.2946,2.1909 -1.5823,0.3654 -2.9213,0.548 -4.0166,0.548 -0.7303,0 -1.9171,-0.2132 -3.5604,-0.6392 -1.6429,-0.4261 -2.8907,-0.7606 -3.7425,-1.0041 l 1.4604,-15.5188 c 0,0 -0.2739,0.2132 -0.8215,0.6389 -0.5477,0.4261 -1.4301,1.0653 -2.6473,1.9171 -1.0956,0.8521 -2.2212,1.5216 -3.3778,2.0083 -1.1562,0.487 -1.8561,0.8521 -2.0996,1.0956 v 34.689 c 2.5563,-1.3391 4.2299,-3.0733 5.021,-5.2035 0.7912,-2.13 1.4911,-4.7773 2.0997,-7.9419 l 0.3651,-2.1909 c 0.9737,0.2435 2.1909,0.6696 3.6513,1.2782 1.4607,0.6083 2.7385,0.9127 3.8341,0.9127 1.5823,0 3.0124,-0.3347 4.2905,-1.004 1.2779,-0.6696 2.4038,-1.3085 3.3775,-1.9171 l 0.5477,-0.3651 c 3.1648,6.5724 6.451,10.9239 9.8591,13.0538 3.4081,2.13 7.6071,3.1953 12.5975,3.1953 5.112,0 8.7939,-1.3695 11.0458,-4.108 2.2518,-2.7386 3.3774,-6.2989 3.3774,-10.6807 -2.7992,2.1909 -5.1726,3.5297 -7.1203,4.0167 -1.9474,0.4867 -4.3209,0.7302 -7.1204,0.7302 -5.112,0 -8.7636,-0.5173 -10.9542,-1.5517 -2.1909,-1.0346 -3.2865,-2.7691 -3.2865,-5.2035 0,-1.7039 0.2132,-3.5907 0.639,-5.6597 0.426,-2.0693 0.913,-4.1992 1.4607,-6.3901 0.5476,-2.1909 1.1562,-4.3512 1.8258,-6.4814 0.6692,-2.13 1.2475,-4.0471 1.7345,-5.751 z m 61.3445,0.1826 -0.5476,1.2779 c -0.8518,1.9476 -1.6126,3.1645 -2.2822,3.6515 -0.6692,0.487 -1.4301,0.7302 -2.2822,0.7302 -0.2434,-0.1216 -0.6998,-0.426 -1.3691,-0.9127 -0.6695,-0.487 -1.4607,-1.0043 -2.3734,-1.552 -0.9131,-0.5476 -1.8258,-1.0346 -2.7389,-1.4604 -0.9127,-0.426 -1.7342,-0.6392 -2.4647,-0.6392 h -0.7302 c -1.3388,0 -2.4038,0.6695 -3.1949,2.0083 -0.7912,1.3388 -1.1869,2.6779 -1.1869,4.0167 0,2.1909 0.7912,3.9255 2.3735,5.2033 1.5823,1.2782 3.469,1.978 5.6599,2.0996 -0.2435,2.4344 -1.2172,4.9904 -2.9214,7.668 -1.8255,2.5563 -3.5297,3.8342 -5.112,3.8342 -2.7995,0 -4.4424,-3.2862 -4.9294,-9.8589 v -2.3735 c 0,-1.0956 0.0609,-1.8258 0.1825,-2.1909 l 7.1204,-56.963 -14.2407,14.0581 v 13.6931 c 0,4.3818 0.1216,8.6419 0.3651,12.7802 0.2435,4.1383 0.487,8.3376 0.7305,12.5975 v 3.2865 c 0.7302,9.6154 1.4604,15.8836 2.1906,18.805 1.4607,6.0857 4.3818,9.1287 8.7636,9.1287 2.7995,0 5.1426,-1.0346 7.029,-3.1039 1.8868,-2.069 3.3778,-4.5338 4.4731,-7.3942 1.0956,-2.8602 1.8867,-5.7206 2.3734,-8.581 0.487,-2.8602 0.7305,-5.0208 0.7305,-6.4812 0,-0.6086 0.2433,-1.0043 0.7302,-1.1868 0.4868,-0.1826 1.0347,-0.4867 1.6433,-0.9128 0.6086,-0.426 1.1562,-1.1259 1.6429,-2.0996 0.487,-0.9737 0.7305,-2.617 0.7305,-4.9295 0,-0.3651 -0.0306,-0.913 -0.0912,-1.6432 -0.061,-0.7302 -0.1523,-1.5823 -0.2742,-2.556 z"
     style="fill:#009c45;fill-rule:evenodd"
     id="path38" />
</svg>
